<?xml version="1.0" encoding="UTF-8"?>
<svg version="1.1" xmlns="http://www.w3.org/2000/svg" width="499" height="499">
<path d="M0 0 C1.2578125 1.26171875 1.2578125 1.26171875 1.2578125 3.26171875 C3.2378125 4.25171875 3.2378125 4.25171875 5.2578125 5.26171875 C5.2578125 5.92171875 5.2578125 6.58171875 5.2578125 7.26171875 C5.84433594 7.50535156 6.43085938 7.74898437 7.03515625 8 C17.41057798 13.88973852 22.26276201 30.42338759 27.01074219 40.61425781 C32.18834864 51.60602845 38.34693871 61.5725189 46.2578125 70.82421875 C48.2578125 73.26171875 48.2578125 73.26171875 48.2578125 75.26171875 C48.9178125 75.26171875 49.5778125 75.26171875 50.2578125 75.26171875 C51.9140625 76.9765625 51.9140625 76.9765625 53.7578125 79.19921875 C56.14708249 82.18217054 56.14708249 82.18217054 59.2578125 84.26171875 C59.2578125 84.92171875 59.2578125 85.58171875 59.2578125 86.26171875 C59.83660156 86.53371094 60.41539062 86.80570312 61.01171875 87.0859375 C66.83984268 90.13683368 71.74632524 94.52465713 76.2578125 99.26171875 C76.86367188 99.82375 77.46953125 100.38578125 78.09375 100.96484375 C88.75729192 111.01553843 95.54815246 123.46698098 96.11865234 138.25537109 C96.18781103 153.85423147 92.20844632 165.43413275 85.2578125 179.26171875 C84.64459531 180.56530079 84.0357659 181.87096669 83.43359375 183.1796875 C80.86456289 188.60769233 78.0663684 193.6068171 74.2578125 198.26171875 C73.5978125 198.26171875 72.9378125 198.26171875 72.2578125 198.26171875 C72.2578125 198.92171875 72.2578125 199.58171875 72.2578125 200.26171875 C71.5978125 200.26171875 70.9378125 200.26171875 70.2578125 200.26171875 C70.2578125 200.92171875 70.2578125 201.58171875 70.2578125 202.26171875 C69.5978125 202.26171875 68.9378125 202.26171875 68.2578125 202.26171875 C68.2578125 202.92171875 68.2578125 203.58171875 68.2578125 204.26171875 C64.14377146 207.28347863 59.71721087 209.78996721 55.2578125 212.26171875 C54.00097656 212.96167969 54.00097656 212.96167969 52.71875 213.67578125 C42.16133379 218.45584917 26.85131862 218.39645395 16.02978516 214.41137695 C13.04122522 213.14937261 10.14998617 211.72953868 7.2578125 210.26171875 C5.05227079 209.23486794 2.84398762 208.21388195 0.6328125 207.19921875 C-0.41390625 206.70808594 -1.460625 206.21695313 -2.5390625 205.7109375 C-12.43867588 201.23196608 -22.37039689 197.55396185 -33.1796875 196.13671875 C-35.03400391 195.88535156 -35.03400391 195.88535156 -36.92578125 195.62890625 C-58.79412664 193.5248894 -79.69315889 201.94329252 -98.9453125 211.46484375 C-106.26226619 214.97777031 -112.05323972 216.73852348 -120.2421875 216.57421875 C-121.44681641 216.57905273 -121.44681641 216.57905273 -122.67578125 216.58398438 C-136.50129382 216.46074237 -149.93473918 211.08870381 -159.7421875 201.26171875 C-160.27972656 200.18083984 -160.27972656 200.18083984 -160.828125 199.078125 C-161.65759025 196.8980945 -161.65759025 196.8980945 -164.7421875 196.26171875 C-170.72976747 188.19923483 -174.35293781 178.59527594 -177.93115234 169.29443359 C-178.65787568 167.47303127 -179.47026388 165.68635953 -180.29296875 163.90625 C-185.38558839 152.1286705 -185.78982972 137.83405145 -182.8203125 125.40234375 C-181.66264338 122.50065362 -180.35220415 119.93519377 -178.7421875 117.26171875 C-178.03835937 115.93333984 -178.03835937 115.93333984 -177.3203125 114.578125 C-174.18649861 108.90861761 -170.47714237 104.62851299 -165.7421875 100.26171875 C-164.99324219 99.49988281 -164.24429688 98.73804688 -163.47265625 97.953125 C-160.30142732 94.82726415 -156.9937047 91.91196932 -153.6171875 89.01171875 C-152.99714844 88.4703125 -152.37710938 87.92890625 -151.73828125 87.37109375 C-151.13886719 86.85546875 -150.53945312 86.33984375 -149.921875 85.80859375 C-149.38288574 85.34291992 -148.84389648 84.87724609 -148.28857422 84.39746094 C-146.7421875 83.26171875 -146.7421875 83.26171875 -143.7421875 82.26171875 C-143.7421875 81.60171875 -143.7421875 80.94171875 -143.7421875 80.26171875 C-142.62564634 79.11028568 -141.5017227 77.96550857 -140.3515625 76.84765625 C-127.15736758 63.84560979 -119.09284557 47.99653351 -111.48828125 31.33984375 C-103.89240579 14.77214505 -103.89240579 14.77214505 -97.7421875 8.26171875 C-97.05511719 7.50890625 -96.36804688 6.75609375 -95.66015625 5.98046875 C-69.71535081 -21.28202383 -29.28298642 -22.36043942 0 0 Z " fill="#020202" transform="translate(293.7421875,247.73828125)"/>
<path d="M0 0 C0.91652344 0.50789063 1.83304687 1.01578125 2.77734375 1.5390625 C11.04287197 6.43114231 18.62689508 12.95756411 24 21 C24 21.66 24 22.32 24 23 C24.66 23 25.32 23 26 23 C27.57078271 25.36958682 29.02119041 27.72783472 30.4375 30.1875 C30.83259766 30.86103516 31.22769531 31.53457031 31.63476562 32.22851562 C32.41133087 33.55294055 33.18386312 34.87973924 33.95214844 36.20898438 C34.80753598 37.6710354 35.70118893 39.11064231 36.60546875 40.54296875 C51.59836911 66.95903129 54.92645846 103.14991986 48.22265625 132.390625 C43.7293782 148.35815388 35.47350857 164.08412952 21 173 C11.54471384 178.07393541 0.19176899 178.37761992 -10.25 176.4375 C-22.10124292 172.75044665 -31.265559 164.28459267 -39 155 C-39.65226562 154.23558594 -40.30453125 153.47117188 -40.9765625 152.68359375 C-55.13270564 135.65796214 -65.06981286 113.38346332 -65.203125 91.03125 C-65.20882507 90.2738855 -65.21452515 89.516521 -65.22039795 88.73620605 C-65.22980802 87.13600034 -65.23636597 85.53577559 -65.24023438 83.93554688 C-65.24986049 81.53479286 -65.28088781 79.13492573 -65.3125 76.734375 C-65.37841956 67.03975083 -64.47317543 58.41956569 -62 49 C-61.77650879 48.04988037 -61.55301758 47.09976074 -61.32275391 46.12084961 C-59.13507042 36.82645861 -55.2663821 27.5327642 -51 19 C-50.34 19 -49.68 19 -49 19 C-48.89171875 18.42121094 -48.7834375 17.84242187 -48.671875 17.24609375 C-45.89218392 7.95352182 -36.07351395 0.56391844 -28 -4 C-18.19985093 -7.34737602 -8.6480053 -4.95970028 0 0 Z " fill="#050505" transform="translate(186,40)"/>
<path d="M0 0 C9.49561417 5.44780428 15.4942274 12.53291788 20.8125 22 C21.39644531 23.03640625 21.39644531 23.03640625 21.9921875 24.09375 C34.46630284 47.68820073 36.30811161 78.38424131 29.8125 104 C29.64621094 104.68223633 29.47992188 105.36447266 29.30859375 106.06738281 C25.10313165 123.03720117 17.47916082 137.23031058 6.8125 151 C6.22855469 151.76957031 5.64460938 152.53914062 5.04296875 153.33203125 C-3.56616048 163.95205198 -18.23899379 174.51811823 -32.1875 176 C-43.72066211 176.71352521 -53.02366783 175.61685462 -63.1875 170 C-63.1875 169.34 -63.1875 168.68 -63.1875 168 C-63.90808594 167.78601563 -64.62867188 167.57203125 -65.37109375 167.3515625 C-72.83507877 163.76967787 -79.44284875 153.73857767 -82.1875 146 C-86.08921292 134.02723473 -87.36805775 123.3293801 -87.375 110.8125 C-87.38724609 109.66974609 -87.39949219 108.52699219 -87.41210938 107.34960938 C-87.45992553 79.15401684 -77.38554998 52.15535929 -60.1875 30 C-59.39279297 28.86111328 -59.39279297 28.86111328 -58.58203125 27.69921875 C-58.12183594 27.13847656 -57.66164063 26.57773437 -57.1875 26 C-56.5275 26 -55.8675 26 -55.1875 26 C-54.94 25.4225 -54.6925 24.845 -54.4375 24.25 C-53.00450012 21.67060021 -51.40325324 19.93878408 -49.1875 18 C-48.5275 18 -47.8675 18 -47.1875 18 C-46.98640625 17.44054687 -46.7853125 16.88109375 -46.578125 16.3046875 C-38.36287454 2.68952522 -14.31159046 -6.46116488 0 0 Z " fill="#050505" transform="translate(345.1875,37)"/>
<path d="M0 0 C8.45807114 6.69597299 11.83837166 18.68462151 13.47265625 28.9765625 C14.23642176 36.95844992 14.1710963 44.99106356 14 53 C13.97486328 54.79244141 13.97486328 54.79244141 13.94921875 56.62109375 C13.03275735 80.94659781 2.88849722 103.08042744 -12 122 C-12.59039062 122.75667969 -13.18078125 123.51335937 -13.7890625 124.29296875 C-17.79541743 129.10911882 -22.29866482 133.05589951 -27.1875 136.9375 C-27.78191895 137.41058594 -28.37633789 137.88367188 -28.98876953 138.37109375 C-32.18719032 140.83872874 -35.15455863 142.73266998 -39 144 C-39 144.66 -39 145.32 -39 146 C-53.10172193 152.82983084 -66.68911432 158.2331619 -82.48046875 154.0859375 C-90.56329549 150.91017541 -98.1059815 146.34102775 -103 139 C-103 138.34 -103 137.68 -103 137 C-103.66 137 -104.32 137 -105 137 C-114.7567974 117.75635612 -116.47320958 94.7650504 -109.75830078 74.11230469 C-106.64354093 65.43590345 -102.92121542 56.81061535 -98 49 C-97.47921875 48.14921875 -96.9584375 47.2984375 -96.421875 46.421875 C-88.58880507 33.90360436 -88.58880507 33.90360436 -84 29 C-83.34 29 -82.68 29 -82 29 C-81.7525 28.4225 -81.505 27.845 -81.25 27.25 C-79.81700012 24.67060021 -78.21575324 22.93878408 -76 21 C-75.34 21 -74.68 21 -74 21 C-73.71189453 20.17242187 -73.71189453 20.17242187 -73.41796875 19.328125 C-71.37815255 15.97900529 -68.44817707 13.99934461 -65.3125 11.75 C-64.64404053 11.26909912 -63.97558105 10.78819824 -63.28686523 10.29272461 C-44.92487182 -2.6478015 -20.96430831 -13.74654958 0 0 Z " fill="#030303" transform="translate(455,171)"/>
<path d="M0 0 C10.49416706 6.9376713 10.49416706 6.9376713 14.2734375 10.1640625 C14.2734375 10.8240625 14.2734375 11.4840625 14.2734375 12.1640625 C14.84578125 12.4115625 15.418125 12.6590625 16.0078125 12.9140625 C18.62354361 14.35722449 20.42117206 16.04622472 22.5234375 18.1640625 C23.58304688 19.2159375 23.58304688 19.2159375 24.6640625 20.2890625 C26.2734375 22.1640625 26.2734375 22.1640625 26.2734375 24.1640625 C27.7584375 24.6590625 27.7584375 24.6590625 29.2734375 25.1640625 C46.8690294 46.61194375 55.96937154 73.50777517 54.2734375 101.1640625 C52.66524592 114.39757114 47.70598171 127.39517982 37.2734375 136.1640625 C24.75881628 143.78865178 10.42224192 145.69943241 -3.953125 142.328125 C-18.70620041 137.70031819 -29.85521538 129.88010467 -40.7265625 119.1640625 C-41.50515625 118.48085938 -42.28375 117.79765625 -43.0859375 117.09375 C-61.67342122 100.28591897 -72.2276655 71.69054852 -73.7265625 47.1640625 C-73.87533112 43.0169284 -73.91150578 38.87612022 -73.9140625 34.7265625 C-73.92630859 33.68435547 -73.93855469 32.64214844 -73.95117188 31.56835938 C-73.96901408 21.97519795 -73.45865093 12.33203078 -68.8515625 3.7265625 C-68.35914063 2.77910156 -67.86671875 1.83164063 -67.359375 0.85546875 C-62.87232293 -6.54065296 -57.46177659 -10.80518792 -49.1875 -13.29296875 C-32.41293766 -16.99402298 -13.85164954 -8.78477536 0 0 Z " fill="#040404" transform="translate(103.7265625,179.8359375)"/>
<path d="M0 0 C1.10961564 3.51191483 1.03443358 6.63334228 0.87890625 10.296875 C0.83056641 11.50214844 0.78222656 12.70742188 0.73242188 13.94921875 C0.67634766 15.20347656 0.62027344 16.45773437 0.5625 17.75 C0.51029297 19.01972656 0.45808594 20.28945313 0.40429688 21.59765625 C0.27468016 24.73202407 0.13971529 27.86606874 0 31 C0.66 31 1.32 31 2 31 C1.896875 32.2375 1.79375 33.475 1.6875 34.75 C1.6875 41.98155286 4.43454394 49.2107122 9.328125 54.53125 C10.20984375 55.3459375 11.0915625 56.160625 12 57 C12.90878906 57.87140625 13.81757813 58.7428125 14.75390625 59.640625 C15.68074219 60.50171875 16.60757812 61.3628125 17.5625 62.25 C18.49191406 63.12140625 19.42132813 63.9928125 20.37890625 64.890625 C22.83630481 66.86826318 24.01708305 67.43182534 27 68 C27.495 68.99 27.495 68.99 28 70 C38.27810205 73.36374249 46.5735028 72.16796497 56.80078125 68.97265625 C59.53245027 68.14214882 62.19257848 67.5003847 65 67 C63.21560051 70.56879897 59.10672041 71.08806375 55.48510742 72.29833984 C44.40489986 75.67332337 33.1128094 75.60210498 22.58984375 70.4921875 C16.81062239 67.16237972 11.75239238 63.62858858 8 58 C8 57.34 8 56.68 8 56 C7.34 56 6.68 56 6 56 C-0.16761625 43.83541301 -2.25018764 33.19906758 -2.3125 19.6875 C-2.31805908 18.66116455 -2.32361816 17.6348291 -2.3293457 16.57739258 C-2.27359831 10.71629239 -1.68463926 5.61770144 0 0 Z " fill="#9D9D9D" transform="translate(344,252)"/>
<path d="M0 0 C-2.08472669 2.08472669 -3.62177539 2.86498415 -6.2890625 4.05859375 C-7.14886719 4.44466797 -8.00867188 4.83074219 -8.89453125 5.22851562 C-10.24611328 5.82696289 -10.24611328 5.82696289 -11.625 6.4375 C-12.50285156 6.83259766 -13.38070312 7.22769531 -14.28515625 7.63476562 C-16.84762801 8.77893021 -19.42103369 9.89359792 -22 11 C-23.03882324 11.46660034 -23.03882324 11.46660034 -24.09863281 11.94262695 C-29.28185231 14.12343486 -33.91399164 14.42457882 -39.5 14.3125 C-40.30308594 14.31572266 -41.10617188 14.31894531 -41.93359375 14.32226562 C-50.22208161 14.24838121 -57.32751715 12.01418969 -65 9 C-62 8 -62 8 -59.41015625 8.92578125 C-54.99602718 10.31625719 -51.03311629 10.25915045 -46.4375 10.1875 C-45.55070557 10.1774292 -44.66391113 10.1673584 -43.75024414 10.15698242 C-41.16633328 10.11872486 -38.58345455 10.06116526 -36 10 C-34.1128125 9.97292969 -34.1128125 9.97292969 -32.1875 9.9453125 C-24.80300852 9.64354242 -18.25033211 8.12712769 -12 4 C-11.67 3.01 -11.34 2.02 -11 1 C-7.50970582 -0.47666292 -3.72563614 -0.07164685 0 0 Z " fill="#555555" transform="translate(213,450)"/>
<path d="M0 0 C0.66 0.66 1.32 1.32 2 2 C1.70016424 4.2487682 1.03939375 5.92367461 0 7.9375 C-1.13083993 10.26985735 -1.57542072 12.45252434 -2 15 C-2.66 15 -3.32 15 -4 15 C-4.05880804 18.16658663 -4.09386406 21.33302993 -4.125 24.5 C-4.14175781 25.386875 -4.15851563 26.27375 -4.17578125 27.1875 C-4.25105561 37.42481308 -1.17384285 45.45685965 2.69726562 54.81640625 C3.00728516 55.58597656 3.31730469 56.35554688 3.63671875 57.1484375 C3.92248779 57.84114746 4.20825684 58.53385742 4.50268555 59.24755859 C5 61 5 61 4 63 C3.07230057 61.00187814 2.15874593 58.99670366 1.2890625 56.97265625 C0.37116128 54.8559204 -0.59824124 52.7612029 -1.6015625 50.68359375 C-7.18773593 38.40158556 -8.98231501 22.92895507 -4.8984375 9.8671875 C-3.75637527 7.095516 -2.54511963 4.56337879 -1 2 C-0.67 1.34 -0.34 0.68 0 0 Z " fill="#BEBEBE" transform="translate(116,363)"/>
<path d="M0 0 C1.10961564 3.51191483 1.03443358 6.63334228 0.87890625 10.296875 C0.83056641 11.50214844 0.78222656 12.70742188 0.73242188 13.94921875 C0.67634766 15.20347656 0.62027344 16.45773437 0.5625 17.75 C0.51029297 19.01972656 0.45808594 20.28945313 0.40429688 21.59765625 C0.27468016 24.73202407 0.13971529 27.86606874 0 31 C0.66 31 1.32 31 2 31 C1.896875 32.2375 1.79375 33.475 1.6875 34.75 C1.65297032 40.19705662 3.56499449 44.41088542 5.80859375 49.30078125 C6.80527117 51.55882748 7.50273545 53.59369683 8 56 C7.34 56 6.68 56 6 56 C-0.16761625 43.83541301 -2.25018764 33.19906758 -2.3125 19.6875 C-2.31805908 18.66116455 -2.32361816 17.6348291 -2.3293457 16.57739258 C-2.27359831 10.71629239 -1.68463926 5.61770144 0 0 Z " fill="#AFAFAF" transform="translate(344,252)"/>
<path d="M0 0 C-2.57940917 1.28970458 -4.12863207 1.26710399 -7 1 C-9.8125 -0.375 -9.8125 -0.375 -12 -2 C-12 -2.66 -12 -3.32 -12 -4 C-13.32 -3.67 -14.64 -3.34 -16 -3 C-16 -3.66 -16 -4.32 -16 -5 C-20.36893737 -5.84062776 -24.4835198 -6.11732956 -28.9296875 -6.09765625 C-30.86328125 -6.09282227 -30.86328125 -6.09282227 -32.8359375 -6.08789062 C-34.18229236 -6.07953733 -35.52864652 -6.07107241 -36.875 -6.0625 C-38.24479004 -6.0574783 -39.61458185 -6.05291657 -40.984375 -6.04882812 C-44.3229619 -6.03707254 -47.66145815 -6.02063964 -51 -6 C-35.81570608 -14.01088385 -13.95299113 -8.18396595 0 0 Z " fill="#C0C0C0" transform="translate(283,241)"/>
<path d="M0 0 C0 3.49371214 -0.31994996 4.91990825 -2 8 C-3.93180301 9.89350735 -5.94969734 11.62447714 -8.03125 13.3515625 C-10.13623346 15.05761815 -10.13623346 15.05761815 -12.375 17.4375 C-14 19 -14 19 -16 19 C-16.33 19.99 -16.66 20.98 -17 22 C-19.47739354 22.90837763 -21.33579484 23 -24 23 C-22.04709472 21.16056628 -20.08818082 19.32840869 -18.125 17.5 C-17.56941406 16.97535156 -17.01382813 16.45070313 -16.44140625 15.91015625 C-12.2265625 12 -12.2265625 12 -10 12 C-10 11.34 -10 10.68 -10 10 C-8.38025441 8.28769752 -6.7041054 6.62836738 -5 5 C-4.071875 4.071875 -3.14375 3.14375 -2.1875 2.1875 C-1.465625 1.465625 -0.74375 0.74375 0 0 Z " fill="#838383" transform="translate(160,318)"/>
<path d="M0 0 C3.48670834 1.1094072 6.77484237 2.26337666 10 4 C10 4.99 10 5.98 10 7 C11.24716797 7.30744141 11.24716797 7.30744141 12.51953125 7.62109375 C13.60621094 7.89050781 14.69289062 8.15992188 15.8125 8.4375 C17.43091797 8.83775391 17.43091797 8.83775391 19.08203125 9.24609375 C21.0740843 9.76077412 23.04811524 10.34937175 25 11 C32.94312372 11.6286795 39.53181352 10.6111594 47 8 C48.32949938 7.65168938 49.66180796 7.31325859 51 7 C46.62753531 11.80298429 41.4855778 12.83429481 35.1328125 13.2578125 C22.34721785 13.56448638 13.65197188 11.48005137 3 4 C1.14453125 1.7734375 1.14453125 1.7734375 0 0 Z " fill="#CACACA" transform="translate(157,204)"/>
<path d="M0 0 C-1.68850748 3.37701496 -4.769565 3.95491205 -8.20703125 5.171875 C-13.15216701 6.25155449 -17.88897485 6.37413523 -22.9375 6.375 C-24.32340332 6.37717529 -24.32340332 6.37717529 -25.73730469 6.37939453 C-30.09848636 6.30827962 -33.14755646 6.20218084 -37 4 C-29.57142857 3.85714286 -29.57142857 3.85714286 -26 5 C-26 4.34 -26 3.68 -26 3 C-20.39 3 -14.78 3 -9 3 C-9 2.34 -9 1.68 -9 1 C-6.04335481 -0.4783226 -3.25770263 -0.06032783 0 0 Z " fill="#818181" transform="translate(137,317)"/>
<path d="M0 0 C0.33 0.66 0.66 1.32 1 2 C-1.65198933 5.34527587 -4.31958591 8.67745404 -7 12 C-7.53496094 12.66386719 -8.06992187 13.32773437 -8.62109375 14.01171875 C-12.05239782 18.14974128 -15.82039477 21.62416501 -20 25 C-20.66 24.67 -21.32 24.34 -22 24 C-21.34 22.68 -20.68 21.36 -20 20 C-19.01 20 -18.02 20 -17 20 C-16.67 18.68 -16.34 17.36 -16 16 C-15.34 16.33 -14.68 16.66 -14 17 C-13.7525 16.46375 -13.505 15.9275 -13.25 15.375 C-10.80532347 10.7301146 -8.04775066 6.39488765 -4 3 C-3.01 3 -2.02 3 -1 3 C-0.67 2.01 -0.34 1.02 0 0 Z " fill="#747474" transform="translate(448,283)"/>
<path d="M0 0 C0.66 0.99 1.32 1.98 2 3 C1.071875 4.051875 1.071875 4.051875 0.125 5.125 C-2.06221436 8.08417237 -3.00651745 10.48460022 -4 14 C-4.33 14.99 -4.66 15.98 -5 17 C-5.66 17 -6.32 17 -7 17 C-7.28875 17.763125 -7.5775 18.52625 -7.875 19.3125 C-9 22 -9 22 -11 25 C-11.66 25 -12.32 25 -13 25 C-11.58201865 15.72473373 -5.2630294 7.55860606 0 0 Z " fill="#575757" transform="translate(363,211)"/>
<path d="M0 0 C8.33884512 2.89216988 14.43473437 9.63666834 19 17 C19 17.66 19 18.32 19 19 C18.01 19.33 17.02 19.66 16 20 C14.3372974 17.32521756 13.00016187 15.0004856 12 12 C11.34 12 10.68 12 10 12 C7.57201704 9.79964044 5.82615221 7.73922831 4 5 C1.94996045 3.80767387 1.94996045 3.80767387 0 3 C0 2.01 0 1.02 0 0 Z " fill="#404040" transform="translate(345,38)"/>
<path d="M0 0 C-2.08472669 2.08472669 -3.62177539 2.86498415 -6.2890625 4.05859375 C-7.14886719 4.44466797 -8.00867188 4.83074219 -8.89453125 5.22851562 C-10.24611328 5.82696289 -10.24611328 5.82696289 -11.625 6.4375 C-12.50285156 6.83259766 -13.38070312 7.22769531 -14.28515625 7.63476562 C-16.84760825 8.77892138 -19.42155967 9.89243571 -22 11 C-22.68674805 11.31251709 -23.37349609 11.62503418 -24.08105469 11.94702148 C-29.42637079 14.22126671 -34.24166288 14.35998475 -40 14.1875 C-40.87011719 14.17396484 -41.74023438 14.16042969 -42.63671875 14.14648438 C-44.75808627 14.11151678 -46.87912974 14.0577253 -49 14 C-49 13.67 -49 13.34 -49 13 C-47.43765625 12.99613281 -47.43765625 12.99613281 -45.84375 12.9921875 C-34.84572347 12.76599704 -26.0160362 10.47929496 -16 6 C-15.21238281 5.66871094 -14.42476562 5.33742188 -13.61328125 4.99609375 C-11.65147611 4.02289684 -11.65147611 4.02289684 -11 1 C-7.50970582 -0.47666292 -3.72563614 -0.07164685 0 0 Z " fill="#C5C5C5" transform="translate(213,450)"/>
<path d="M0 0 C1.81661551 4.82145752 -0.37458014 8.34034769 -2.3359375 12.81640625 C-5.61680732 19.09318772 -9.99835061 25.09456079 -16 29 C-16.66 29 -17.32 29 -18 29 C-17.42239677 25.46413157 -16.1727933 23.79041711 -13.625 21.3125 C-13.01914063 20.71050781 -12.41328125 20.10851562 -11.7890625 19.48828125 C-10 18 -10 18 -7 17 C-5.82141513 14.70732992 -4.82229402 12.50989601 -3.875 10.125 C-3.61074219 9.48691406 -3.34648437 8.84882813 -3.07421875 8.19140625 C-1.9607427 5.48402032 -0.92588774 2.77766321 0 0 Z " fill="#9B9B9B" transform="translate(155,288)"/>
<path d="M0 0 C0.33 0 0.66 0 1 0 C0.28882285 9.60089155 -3.45298508 17.28081869 -8.125 25.5625 C-8.64815796 26.49280029 -8.64815796 26.49280029 -9.18188477 27.44189453 C-11.749746 31.874873 -11.749746 31.874873 -14 33 C-13.71125 32.34 -13.4225 31.68 -13.125 31 C-11.99073258 27.97528689 -11.24878994 25.01676812 -10.5625 21.8671875 C-10 20 -10 20 -8 17 C-7.01 17 -6.02 17 -5 17 C-4.95101563 16.28972656 -4.90203125 15.57945312 -4.8515625 14.84765625 C-4.77679688 13.92855469 -4.70203125 13.00945312 -4.625 12.0625 C-4.55539062 11.14597656 -4.48578125 10.22945313 -4.4140625 9.28515625 C-4.27742188 8.53105469 -4.14078125 7.77695312 -4 7 C-3.34 6.67 -2.68 6.34 -2 6 C-1.27306096 4.02111039 -0.60183749 2.02045442 0 0 Z " fill="#808080" transform="translate(463,250)"/>
<path d="M0 0 C0.33 0 0.66 0 1 0 C1.41277905 26.75125788 1.41277905 26.75125788 -1 40 C-1.33 40 -1.66 40 -2 40 C-2.05907207 35.77089411 -2.09395041 31.54189711 -2.125 27.3125 C-2.14175781 26.13365234 -2.15851563 24.95480469 -2.17578125 23.74023438 C-2.22016577 15.64005941 -1.47369081 7.96407765 0 0 Z " fill="#909090" transform="translate(260,121)"/>
<path d="M0 0 C4.3768102 2.60524417 7.40406005 5.35653709 10.60546875 9.31640625 C11.98754989 10.9849692 13.44802029 12.48985263 15 14 C17.33333333 16.33333333 19.66666667 18.66666667 22 21 C17.18626046 19.70127848 14.27416824 17.87520666 10.625 14.5 C9.75101563 13.7059375 8.87703125 12.911875 7.9765625 12.09375 C6 10 6 10 6 8 C5.01 7.67 4.02 7.34 3 7 C0 2.66666667 0 2.66666667 0 0 Z " fill="#868686" transform="translate(126,437)"/>
<path d="M0 0 C-1 2 -2 4 -3 6 C-3.5775 6.103125 -4.155 6.20625 -4.75 6.3125 C-8.01058468 7.30878976 -9.65620997 9.59453129 -12 12 C-12.66 12 -13.32 12 -14 12 C-14.33 12.99 -14.66 13.98 -15 15 C-16.32 15 -17.64 15 -19 15 C-17.65658689 11.88481501 -16.33074518 10.19247453 -13.59375 8.203125 C-12.93246094 7.71972656 -12.27117187 7.23632812 -11.58984375 6.73828125 C-10.55537109 6.00158203 -10.55537109 6.00158203 -9.5 5.25 C-8.46552734 4.49009766 -8.46552734 4.49009766 -7.41015625 3.71484375 C-2.27345856 0 -2.27345856 0 0 0 Z " fill="#6B6B6B" transform="translate(400,177)"/>
<path d="M0 0 C0.66 0.99 1.32 1.98 2 3 C5.06556598 3.73343428 5.06556598 3.73343428 8 4 C8 4.66 8 5.32 8 6 C8.556875 5.79375 9.11375 5.5875 9.6875 5.375 C12.659538 4.89304789 14.31979941 5.73434972 17 7 C16.67 7.99 16.34 8.98 16 10 C16.66 10.33 17.32 10.66 18 11 C13.6787573 10.33833524 10.04821316 8.83248554 6.0625 7.0625 C1.75346763 5.15414725 -2.50495792 3.42057055 -7 2 C-7 1.67 -7 1.34 -7 1 C-2.25 0 -2.25 0 0 0 Z " fill="#A1A1A1" transform="translate(282,445)"/>
<path d="M0 0 C-3 2 -3 2 -6.625 2.9375 C-7.73875 3.288125 -8.8525 3.63875 -10 4 C-10.33 4.99 -10.66 5.98 -11 7 C-12.65 6.67 -14.3 6.34 -16 6 C-16.0825 6.61875 -16.165 7.2375 -16.25 7.875 C-17 10 -17 10 -18.8125 11.3125 C-21.32299678 12.10151327 -22.55492066 11.87324262 -25 11 C-21.48432207 8.00972781 -18.02018127 5.83314601 -13.875 3.8125 C-12.84117187 3.30332031 -11.80734375 2.79414063 -10.7421875 2.26953125 C-6.93178552 0.50545626 -4.16672532 -0.1126142 0 0 Z " fill="#898989" transform="translate(232,235)"/>
<path d="M0 0 C0.48210937 0.42152344 0.96421875 0.84304688 1.4609375 1.27734375 C2.09257812 1.82519531 2.72421875 2.37304688 3.375 2.9375 C4.00148438 3.48277344 4.62796875 4.02804687 5.2734375 4.58984375 C6.95632334 6.06958624 6.95632334 6.06958624 9 7 C9 7.66 9 8.32 9 9 C9.85851562 9.39832031 9.85851562 9.39832031 10.734375 9.8046875 C13.1076012 11.05676891 15.12213286 12.4936352 17.25 14.125 C17.95640625 14.66382813 18.6628125 15.20265625 19.390625 15.7578125 C19.92171875 16.16773438 20.4528125 16.57765625 21 17 C20.67 17.66 20.34 18.32 20 19 C18.989375 18.236875 17.97875 17.47375 16.9375 16.6875 C13.44221425 14.17660085 10.0045566 12.55278725 6 11 C6 10.34 6 9.68 6 9 C5.34 9 4.68 9 4 9 C3.896875 8.401875 3.79375 7.80375 3.6875 7.1875 C2.90614947 4.70138466 1.85104584 3.77056558 0 2 C0 1.34 0 0.68 0 0 Z " fill="#969696" transform="translate(344,325)"/>
<path d="M0 0 C3.88696441 3.5781555 6.33342088 6.95078456 8.8125 11.6875 C9.41707031 12.82574219 10.02164063 13.96398437 10.64453125 15.13671875 C12 18 12 18 12 20 C10.125 19.875 10.125 19.875 8 19 C6.875 16.125 6.875 16.125 6 13 C5.34 12.01 4.68 11.02 4 10 C4 8.68 4 7.36 4 6 C3.360625 5.87625 2.72125 5.7525 2.0625 5.625 C1.381875 5.41875 0.70125 5.2125 0 5 C-0.33 4.34 -0.66 3.68 -1 3 C-0.67 2.01 -0.34 1.02 0 0 Z " fill="#828282" transform="translate(136,211)"/>
<path d="M0 0 C5.58008684 0.47804482 9.25880341 2.64159266 13.875 5.5625 C14.90753906 6.19961914 14.90753906 6.19961914 15.9609375 6.84960938 C17.64600952 7.8910775 19.32377031 8.94435916 21 10 C20.01 10.495 20.01 10.495 19 11 C16.64018187 10.06421005 14.30368736 9.06652192 12 8 C12 7.34 12 6.68 12 6 C11.01 6.33 10.02 6.66 9 7 C6.63477442 6.07796291 4.29598193 5.08301035 2 4 C2 3.01 2 2.02 2 1 C1.34 0.67 0.68 0.34 0 0 Z " fill="#8B8B8B" transform="translate(86,172)"/>
<path d="M0 0 C0.66 0.99 1.32 1.98 2 3 C1.54625 3.4125 1.0925 3.825 0.625 4.25 C-1.0914384 5.93416435 -1.0914384 5.93416435 -2.0625 8.125 C-3 10 -3 10 -5 11 C-5 12.65 -5 14.3 -5 16 C-6.98 16.99 -6.98 16.99 -9 18 C-9 18.66 -9 19.32 -9 20 C-9.66 20 -10.32 20 -11 20 C-9.56952311 14.89115395 -7.28610306 10.98255739 -4.375 6.625 C-3.95476562 5.98433594 -3.53453125 5.34367187 -3.1015625 4.68359375 C-2.07370232 3.11844302 -1.03768114 1.55865686 0 0 Z " fill="#939393" transform="translate(282,71)"/>
<path d="M0 0 C-0.99 0.33 -1.98 0.66 -3 1 C-3.66 0.67 -4.32 0.34 -5 0 C-12.38741358 -0.32962213 -19.69677616 -0.16851581 -27 1 C-20.7925839 -6.13852852 -7.49464856 -4.18305966 0 0 Z " fill="#B0B0B0" transform="translate(182,38)"/>
<path d="M0 0 C-5.14285714 5.57142857 -5.14285714 5.57142857 -9 6 C-9 6.66 -9 7.32 -9 8 C-10.8125 9.0625 -10.8125 9.0625 -13 10 C-13.99 9.67 -14.98 9.34 -16 9 C-6.7234252 -1.01870079 -6.7234252 -1.01870079 0 0 Z " fill="#6E6E6E" transform="translate(425,309)"/>
<path d="M0 0 C4.84072886 2.61661019 7.27585163 4.78229561 9 10.0625 C9.97212726 12.91812383 10.71034722 14.12664772 13 16 C12.67 16.66 12.34 17.32 12 18 C0 4.99711816 0 4.99711816 0 0 Z " fill="#8B8B8B" transform="translate(47,277)"/>
<path d="M0 0 C2.09319947 3.44762266 2.09319947 3.44762266 1.6796875 5.8984375 C0.98726083 8.03938892 0.11867791 9.89018265 -0.9375 11.875 C-2.63609776 15.17336802 -3.93121459 18.43738195 -5 22 C-7.25851519 15.22445444 -2.5456969 6.42485407 0 0 Z " fill="#939393" transform="translate(130,70)"/>
<path d="M0 0 C0.99 0.33 1.98 0.66 3 1 C2.48050781 1.44730469 1.96101563 1.89460937 1.42578125 2.35546875 C-6.39801608 9.09706415 -6.39801608 9.09706415 -13 17 C-12.63003531 11.0805649 -8.68024751 6.37098818 -4.375 2.5625 C-2.8125 1.4375 -2.8125 1.4375 0 0 Z " fill="#989898" transform="translate(48,169)"/>
<path d="M0 0 C0 0.66 0 1.32 0 2 C-2.63892176 3.78305524 -4.97178863 4.99059621 -8 6 C-9.12516085 7.83284443 -9.12516085 7.83284443 -10 10 C-11.77777778 13.88888889 -11.77777778 13.88888889 -14 15 C-14.65213292 17.02463255 -14.65213292 17.02463255 -15 19 C-15.99 19 -16.98 19 -18 19 C-15.54665519 12.20243975 -8.33824164 0 0 0 Z " fill="#C9C9C9" transform="translate(155,39)"/>
<path d="M0 0 C-1.44424635 3.23861303 -3.25772247 5.61969163 -5.625 8.25 C-6.25664062 8.95640625 -6.88828125 9.6628125 -7.5390625 10.390625 C-8.02117187 10.92171875 -8.50328125 11.4528125 -9 12 C-9.66 11.01 -10.32 10.02 -11 9 C-9.73965413 7.49117739 -8.46636351 5.99315956 -7.1875 4.5 C-6.47980469 3.6646875 -5.77210938 2.829375 -5.04296875 1.96875 C-3 0 -3 0 0 0 Z " fill="#494949" transform="translate(356,181)"/>
<path d="M0 0 C2.86562595 2.47906057 4.1617794 5.12161059 5.6875 8.5625 C6.12449219 9.53316406 6.56148438 10.50382812 7.01171875 11.50390625 C8 14 8 14 8 16 C6.140625 15.76171875 6.140625 15.76171875 4 15 C0.89877765 10.45345489 -0.56310544 5.49027801 0 0 Z " fill="#727272" transform="translate(315,279)"/>
<path d="M0 0 C0.66 0.33 1.32 0.66 2 1 C-2.43076923 6.78461538 -2.43076923 6.78461538 -5.3125 7.875 C-6.1478125 7.936875 -6.1478125 7.936875 -7 8 C-7 8.66 -7 9.32 -7 10 C-8.98 10.66 -10.96 11.32 -13 12 C-11.47236536 7.91403748 -8.88915809 6.20173821 -5.375 3.75 C-4.37210937 3.04359375 -3.36921875 2.3371875 -2.3359375 1.609375 C-1.56507813 1.07828125 -0.79421875 0.5471875 0 0 Z " fill="#7D7D7D" transform="translate(311,43)"/>
<path d="M0 0 C4.12172083 3.76843047 7.63068221 7.88904305 10 13 C9.67 13.66 9.34 14.32 9 15 C7.02 13.35 5.04 11.7 3 10 C3.33 8.68 3.66 7.36 4 6 C2.68 5.67 1.36 5.34 0 5 C0 3.33333333 0 1.66666667 0 0 Z " fill="#696969" transform="translate(303,259)"/>
<path d="M0 0 C0.66 0 1.32 0 2 0 C2.02689449 2.95839355 2.04678741 5.91654427 2.0625 8.875 C2.07087891 9.71675781 2.07925781 10.55851562 2.08789062 11.42578125 C2.09111328 12.23144531 2.09433594 13.03710938 2.09765625 13.8671875 C2.10289307 14.61081543 2.10812988 15.35444336 2.11352539 16.12060547 C2 18 2 18 1 20 C0.34 20 -0.32 20 -1 20 C-0.9278125 19.31035156 -0.855625 18.62070312 -0.78125 17.91015625 C-0.18806058 11.90411341 0.09892295 6.0343 0 0 Z " fill="#0A0A0A" transform="translate(386,384)"/>
<path d="M0 0 C0.33 0 0.66 0 1 0 C1.36741339 8.55937129 0.73977333 15.86222087 -2 24 C-2.89893758 20.90765472 -3.16349234 18.09202643 -3.1875 14.875 C-3.20167969 14.00617188 -3.21585937 13.13734375 -3.23046875 12.2421875 C-3 10 -3 10 -1 8 C-0.54188325 6.02764667 -0.54188325 6.02764667 -0.375 3.875 C-0.25125 2.59625 -0.1275 1.3175 0 0 Z " fill="#A3A3A3" transform="translate(467,226)"/>
<path d="M0 0 C0.66 0.66 1.32 1.32 2 2 C1.70016424 4.2487682 1.03939375 5.92367461 0 7.9375 C-1.13083993 10.26985735 -1.57542072 12.45252434 -2 15 C-2.66 15 -3.32 15 -4 15 C-4.50610724 8.92671312 -3.04157942 5.22771463 0 0 Z " fill="#636363" transform="translate(116,363)"/>
<path d="M0 0 C1.485 0.99 1.485 0.99 3 2 C3.34057617 3.97119141 3.34057617 3.97119141 3.29296875 6.3515625 C3.28330078 7.20234375 3.27363281 8.053125 3.26367188 8.9296875 C3.23853516 9.81914062 3.21339844 10.70859375 3.1875 11.625 C3.16719727 12.97078125 3.16719727 12.97078125 3.14648438 14.34375 C3.11106925 16.56309789 3.06168461 18.78125188 3 21 C2.34 21.33 1.68 21.66 1 22 C0.97282308 19.93757383 0.9535242 17.87504297 0.9375 15.8125 C0.92589844 14.66394531 0.91429687 13.51539063 0.90234375 12.33203125 C0.98807168 9.40699414 1.32150977 6.83683709 2 4 C1.34 4 0.68 4 0 4 C0 2.68 0 1.36 0 0 Z " fill="#161616" transform="translate(153,255)"/>
<path d="M0 0 C1.65 0 3.3 0 5 0 C4.34 0.66 3.68 1.32 3 2 C2.01 2 1.02 2 0 2 C0 1.34 0 0.68 0 0 Z M-3 2 C-2.01 2.33 -1.02 2.66 0 3 C-3.3 6.3 -6.6 9.6 -10 13 C-10.33 12.01 -10.66 11.02 -11 10 C-8.33333333 7.33333333 -5.66666667 4.66666667 -3 2 Z " fill="#121212" transform="translate(155,39)"/>
<path d="M0 0 C1.36420006 4.09260018 -0.2335485 6.47012659 -1.9375 10.1875 C-2.22818359 10.84169922 -2.51886719 11.49589844 -2.81835938 12.16992188 C-3.53695343 13.78381344 -4.2673588 15.39243655 -5 17 C-6.27689518 13.16931445 -6.03456425 9.85044591 -5 6 C-3 3.625 -3 3.625 -1 2 C-0.67 1.34 -0.34 0.68 0 0 Z " fill="#8B8B8B" transform="translate(384,410)"/>
<path d="M0 0 C5.75 -0.125 5.75 -0.125 8 1 C8.33 1.99 8.66 2.98 9 4 C9.66 4.33 10.32 4.66 11 5 C11 5.66 11 6.32 11 7 C11.99 7.33 12.98 7.66 14 8 C13.01 8.495 13.01 8.495 12 9 C9.43359375 7.63671875 9.43359375 7.63671875 6.4375 5.6875 C4.95056641 4.73423828 4.95056641 4.73423828 3.43359375 3.76171875 C1 2 1 2 0 0 Z " fill="#8C8C8C" transform="translate(73,307)"/>
<path d="M0 0 C-1.27721526 4.99275057 -3.17330957 7.57611908 -7 11 C-7.88257281 8.56754322 -8.21943692 7.47352178 -7.109375 5.078125 C-6.66078125 4.47484375 -6.2121875 3.8715625 -5.75 3.25 C-5.31171875 2.63640625 -4.8734375 2.0228125 -4.421875 1.390625 C-3 0 -3 0 0 0 Z " fill="#727272" transform="translate(363,170)"/>
<path d="M0 0 C2.71212397 2.36921174 3.92238997 4.67106739 5.25 8 C5.60578125 8.86625 5.9615625 9.7325 6.328125 10.625 C7 13 7 13 6 16 C3.23100861 13.49897552 1.35676815 11.80552696 1 8 C1.4375 5.75 1.4375 5.75 2 4 C1.34 4 0.68 4 0 4 C0 2.68 0 1.36 0 0 Z " fill="#818181" transform="translate(221,80)"/>
<path d="M0 0 C0.66 0.33 1.32 0.66 2 1 C-2.58943482 6.47262502 -7.11796517 11.8607903 -13 16 C-11.63055898 13.05043472 -10.12169591 10.47531189 -8 8 C-7.34 8 -6.68 8 -6 8 C-5.7525 7.4225 -5.505 6.845 -5.25 6.25 C-3.83316683 3.6997003 -2.12372463 1.98214299 0 0 Z " fill="#A6A6A6" transform="translate(296,55)"/>
<path d="M0 0 C6.24723226 -0.82200425 10.71317837 2.07448606 16 5 C13.42059083 6.28970458 11.87136793 6.26710399 9 6 C6.1875 4.625 6.1875 4.625 4 3 C4 2.34 4 1.68 4 1 C2.68 1.33 1.36 1.66 0 2 C0 1.34 0 0.68 0 0 Z " fill="#7A7A7A" transform="translate(267,236)"/>
<path d="M0 0 C0.68707555 2.49064888 1 4.37886292 1 7 C0.34 7 -0.32 7 -1 7 C-1.0825 7.7425 -1.165 8.485 -1.25 9.25 C-2.1396946 12.51221354 -3.48503749 13.80954878 -6 16 C-5.37183502 12.05050296 -4.1354471 8.80107972 -2.4375 5.1875 C-1.98246094 4.21167969 -1.52742187 3.23585938 -1.05859375 2.23046875 C-0.70925781 1.49441406 -0.35992187 0.75835937 0 0 Z " fill="#858585" transform="translate(186,271)"/>
<path d="M0 0 C4.67105792 1.55701931 8.08705685 4.08447373 12 7 C11.67 7.66 11.34 8.32 11 9 C2.80082988 5.68879668 2.80082988 5.68879668 0 3 C0 2.01 0 1.02 0 0 Z " fill="#7C7C7C" transform="translate(283,242)"/>
<path d="M0 0 C4.06498881 1.37184347 6.67396561 3.22068459 9.8125 6.125 C10.99779297 7.21167969 10.99779297 7.21167969 12.20703125 8.3203125 C12.79871094 8.87460937 13.39039063 9.42890625 14 10 C13.67 10.66 13.34 11.32 13 12 C12.46890625 11.50628906 11.9378125 11.01257812 11.390625 10.50390625 C10.68421875 9.86324219 9.9778125 9.22257812 9.25 8.5625 C8.55390625 7.92441406 7.8578125 7.28632812 7.140625 6.62890625 C5.01207275 5.00918675 3.60976595 4.41732744 1 4 C0.67 2.68 0.34 1.36 0 0 Z " fill="#C4C4C4" transform="translate(345,38)"/>
<path d="M0 0 C0.99 0 1.98 0 3 0 C1.53967505 5.31027254 -0.98320986 9.46330032 -4 14 C-4 10.38970831 -3.03907418 7.44193324 -2 4 C-1.34 4 -0.68 4 0 4 C-0.33 3.01 -0.66 2.02 -1 1 C-0.67 0.67 -0.34 0.34 0 0 Z " fill="#898989" transform="translate(375,427)"/>
<path d="M0 0 C0.33 0 0.66 0 1 0 C0.51969656 6.48409637 -0.99968316 12.19183947 -4 18 C-4.66 18.33 -5.32 18.66 -6 19 C-5.7834375 17.95199219 -5.7834375 17.95199219 -5.5625 16.8828125 C-5.376875 15.97273438 -5.19125 15.06265625 -5 14.125 C-4.814375 13.22007812 -4.62875 12.31515625 -4.4375 11.3828125 C-3.93980405 9.07592097 -3.93980405 9.07592097 -4 7 C-3.34 6.67 -2.68 6.34 -2 6 C-1.27306096 4.02111039 -0.60183749 2.02045442 0 0 Z " fill="#B7B7B7" transform="translate(463,250)"/>
<path d="M0 0 C2.70331017 2.70331017 3.19915686 5.71542796 4.125 9.3125 C4.30675781 9.97701172 4.48851562 10.64152344 4.67578125 11.32617188 C5.63204455 14.9606914 6.21811505 18.24115057 6 22 C4.04690952 18.48091805 2.97928961 14.86092366 1.875 11 C1.52179688 9.783125 1.16859375 8.56625 0.8046875 7.3125 C0 4 0 4 0 0 Z " fill="#C2C2C2" transform="translate(370,70)"/>
<path d="M0 0 C-0.33 1.32 -0.66 2.64 -1 4 C-2.32 4.33 -3.64 4.66 -5 5 C-5.33 6.32 -5.66 7.64 -6 9 C-7.32 8.67 -8.64 8.34 -10 8 C-8.33333333 6.33333333 -6.66666667 4.66666667 -5 3 C-4.443125 2.401875 -3.88625 1.80375 -3.3125 1.1875 C-2 0 -2 0 0 0 Z " fill="#777777" transform="translate(136,342)"/>
<path d="M0 0 C2.34882224 2.34882224 3.03503024 4.27123667 4.1875 7.375 C4.55230469 8.33148438 4.91710937 9.28796875 5.29296875 10.2734375 C6.01370542 13.05285296 5.98549829 14.35108103 5 17 C4.81824219 16.28972656 4.63648438 15.57945312 4.44921875 14.84765625 C4.07216797 13.46900391 4.07216797 13.46900391 3.6875 12.0625 C3.44386719 11.14597656 3.20023438 10.22945312 2.94921875 9.28515625 C2.63597656 8.53105469 2.32273438 7.77695313 2 7 C1.01 6.67 0.02 6.34 -1 6 C-0.67 4.02 -0.34 2.04 0 0 Z " fill="#A3A3A3" transform="translate(148,231)"/>
<path d="M0 0 C0 4.00333149 -0.93272472 6.80957758 -3.625 9.8125 C-4.07875 10.204375 -4.5325 10.59625 -5 11 C-5.66 10.67 -6.32 10.34 -7 10 C-5.6062718 5.56541027 -3.39417765 3.12621626 0 0 Z " fill="#747474" transform="translate(160,318)"/>
<path d="M0 0 C0.9075 0.37125 1.815 0.7425 2.75 1.125 C2.75 1.785 2.75 2.445 2.75 3.125 C3.74 3.455 4.73 3.785 5.75 4.125 C2.04218328 5.36093891 1.07489747 4.6928132 -2.4375 3.1875 C-3.33855469 2.80722656 -4.23960938 2.42695313 -5.16796875 2.03515625 C-5.85503906 1.73480469 -6.54210937 1.43445313 -7.25 1.125 C-4.16500609 -0.68575729 -3.64851706 -0.98229305 0 0 Z " fill="#848484" transform="translate(94.25,315.875)"/>
<path d="M0 0 C0.66 0.33 1.32 0.66 2 1 C0.61133677 1.9893091 -0.78629851 2.96603078 -2.1875 3.9375 C-2.96480469 4.48277344 -3.74210937 5.02804687 -4.54296875 5.58984375 C-7.07950299 7.0456289 -9.1218182 7.59613435 -12 8 C-8.14565801 3.9315279 -5.25784026 1.75261342 0 0 Z " fill="#969696" transform="translate(358,452)"/>
<path d="M0 0 C0.66 0 1.32 0 2 0 C1.67 1.32 1.34 2.64 1 4 C0.34 4 -0.32 4 -1 4 C-0.67 4.99 -0.34 5.98 0 7 C-2.31 8.32 -4.62 9.64 -7 11 C-5.25731793 7.03935893 -2.85325271 3.25563451 0 0 Z " fill="#969696" transform="translate(371,200)"/>
<path d="M0 0 C2 2 2 2 2 5 C3.32 5.33 4.64 5.66 6 6 C6 8.66666667 6 11.33333333 6 14 C5 12.33333333 4 10.66666667 3 9 C2.443125 8.154375 1.88625 7.30875 1.3125 6.4375 C0 4 0 4 0 0 Z " fill="#9E9E9E" transform="translate(263,179)"/>
<path d="M0 0 C2.31 0.66 4.62 1.32 7 2 C6.67 2.99 6.34 3.98 6 5 C6.66 5.33 7.32 5.66 8 6 C4.65626525 5.44271087 1.96687001 4.64826111 -1 3 C-0.67 2.01 -0.34 1.02 0 0 Z " fill="#707070" transform="translate(292,450)"/>
<path d="M0 0 C2.66666667 2.66666667 5.33333333 5.33333333 8 8 C7.67 8.66 7.34 9.32 7 10 C5.109375 9.78515625 5.109375 9.78515625 3 9 C1.953125 6.93359375 1.953125 6.93359375 1.25 4.4375 C1.00765625 3.61121094 0.7653125 2.78492188 0.515625 1.93359375 C0.34546875 1.29550781 0.1753125 0.65742188 0 0 Z " fill="#8F8F8F" transform="translate(334,313)"/>
<path d="M0 0 C2.8125 -0.1875 2.8125 -0.1875 6 0 C7.5625 1.4375 7.5625 1.4375 9 3 C11.60611077 3.72197162 11.60611077 3.72197162 14 4 C14 4.33 14 4.66 14 5 C7.88225104 5.49940808 4.97504047 4.24900602 0 1 C0 0.67 0 0.34 0 0 Z " fill="#767676" transform="translate(363,319)"/>
<path d="M0 0 C1.875 0.125 1.875 0.125 4 1 C5.25 4.0625 5.25 4.0625 6 7 C5.34 7.66 4.68 8.32 4 9 C0 2.25 0 2.25 0 0 Z " fill="#6C6C6C" transform="translate(42,268)"/>
<path d="M0 0 C1.17571451 3.67410785 1.07366746 7.16929183 1 11 C0.34 11 -0.32 11 -1 11 C-1.33 12.32 -1.66 13.64 -2 15 C-2.33 15 -2.66 15 -3 15 C-2.44854729 9.76119922 -1.57077907 5.02649303 0 0 Z " fill="#9C9C9C" transform="translate(264,106)"/>
<path d="M0 0 C0.66 0.33 1.32 0.66 2 1 C1.34 3.97 0.68 6.94 0 10 C-1.32 10.33 -2.64 10.66 -4 11 C-3.52269162 9.5410574 -3.04308958 8.08286504 -2.5625 6.625 C-2.29566406 5.81289062 -2.02882812 5.00078125 -1.75390625 4.1640625 C-1 2 -1 2 0 0 Z " fill="#818181" transform="translate(135,59)"/>
<path d="M0 0 C3.25524265 3.02272532 5.61820737 6.25718301 8 10 C7.67 10.66 7.34 11.32 7 12 C3.83884224 10.63016497 3.0072908 10.0109362 1 7 C0.60612212 4.67612053 0.26513915 2.34206251 0 0 Z " fill="#9C9C9C" transform="translate(326,301)"/>
<path d="M0 0 C0.99 0 1.98 0 3 0 C3 3 3 3 1.46875 4.60546875 C0.8190625 5.12753906 0.169375 5.64960938 -0.5 6.1875 C-1.1496875 6.71730469 -1.799375 7.24710937 -2.46875 7.79296875 C-2.9740625 8.19128906 -3.479375 8.58960938 -4 9 C-4.66 8.67 -5.32 8.34 -6 8 C-5.34 6.68 -4.68 5.36 -4 4 C-3.01 4 -2.02 4 -1 4 C-0.67 2.68 -0.34 1.36 0 0 Z " fill="#949494" transform="translate(432,299)"/>
<path d="M0 0 C1 2 1 2 0.375 5.4375 C-1.16163629 9.41878493 -2.1915187 10.29620573 -6 12 C-4.43358249 7.69235185 -2.31663844 3.93828536 0 0 Z " fill="#A0A0A0" transform="translate(175,295)"/>
<path d="M0 0 C1.98 0.99 1.98 0.99 4 2 C4 2.66 4 3.32 4 4 C5.32 4.66 6.64 5.32 8 6 C8 6.66 8 7.32 8 8 C7.01 8.33 6.02 8.66 5 9 C0.57142857 3.85714286 0.57142857 3.85714286 0 0 Z " fill="#757575" transform="translate(295,251)"/>
<path d="M0 0 C-1 2 -2 4 -3 6 C-5.32156597 6.40729228 -7.6568787 6.74438677 -10 7 C-3.18421053 0 -3.18421053 0 0 0 Z " fill="#7E7E7E" transform="translate(400,177)"/>
<path d="M0 0 C1.32 0.33 2.64 0.66 4 1 C4.93065133 3.60582371 5.14917407 4.64198224 4.0625 7.25 C3.711875 7.8275 3.36125 8.405 3 9 C0 3.375 0 3.375 0 0 Z " fill="#767676" transform="translate(128,161)"/>
<path d="M0 0 C-1.66302124 3.32604248 -4.62976481 3.80042476 -8 5 C-10.4375 4.6875 -10.4375 4.6875 -12 4 C-11.01 4 -10.02 4 -9 4 C-9 3.01 -9 2.02 -9 1 C-6.04335481 -0.4783226 -3.25770263 -0.06032783 0 0 Z " fill="#9E9E9E" transform="translate(137,317)"/>
<path d="M0 0 C1.0725 0.309375 2.145 0.61875 3.25 0.9375 C5.82866222 1.66812096 8.39512102 2.37482904 11 3 C11 3.99 11 4.98 11 6 C6.87248551 5.39301257 3.6678852 3.96189209 0 2 C0 1.34 0 0.68 0 0 Z " fill="#999999" transform="translate(282,205)"/>
<path d="M0 0 C3.49844386 0.63389235 5.84086876 2.05177694 8.75 4.0625 C9.94882813 4.88427734 9.94882813 4.88427734 11.171875 5.72265625 C12.07679688 6.35494141 12.07679688 6.35494141 13 7 C9.32831864 7 6.45689963 6.21631654 3 5 C2.67 4.01 2.34 3.02 2 2 C1.34 1.34 0.68 0.68 0 0 Z " fill="#A6A6A6" transform="translate(182,39)"/>
<path d="M0 0 C5.67013889 1.47916667 5.67013889 1.47916667 7.1875 3.875 C7.455625 4.57625 7.72375 5.2775 8 6 C8.97581759 7.35113205 9.97029741 8.68946944 11 10 C7.81326038 8.59698853 5.67778594 6.92234929 3.25 4.4375 C2.63640625 3.81746094 2.0228125 3.19742187 1.390625 2.55859375 C0 1 0 1 0 0 Z " fill="#A5A5A5" transform="translate(62,297)"/>
<path d="M0 0 C0.66 0 1.32 0 2 0 C5 5.75 5 5.75 5 8 C3.68 7.67 2.36 7.34 1 7 C0.67 4.69 0.34 2.38 0 0 Z " fill="#6B6B6B" transform="translate(143,223)"/>
<path d="M0 0 C0.66 0.99 1.32 1.98 2 3 C-0.31 5.64 -2.62 8.28 -5 11 C-5.33 10.34 -5.66 9.68 -6 9 C-4.02 6.03 -2.04 3.06 0 0 Z " fill="#959595" transform="translate(363,211)"/>
<path d="M0 0 C1.12115979 3.36347936 0.83325195 5.58366701 0 9 C-0.185625 9.928125 -0.37125 10.85625 -0.5625 11.8125 C-0.706875 12.534375 -0.85125 13.25625 -1 14 C-2.42425426 11.68624865 -3.03742624 10.42016246 -2.79296875 7.67578125 C-2.59316406 6.89589844 -2.39335938 6.11601562 -2.1875 5.3125 C-1.99542969 4.52488281 -1.80335937 3.73726562 -1.60546875 2.92578125 C-1 1 -1 1 0 0 Z " fill="#101010" transform="translate(35,189)"/>
<path d="M0 0 C3.53600465 1.91135386 5.78972846 3.62642766 8 7 C4.84859577 6.65930765 3.39218439 6.41923159 1.1875 4.0625 C0 2 0 2 0 0 Z " fill="#7D7D7D" transform="translate(365,344)"/>
<path d="M0 0 C3.48670834 1.1094072 6.77484237 2.26337666 10 4 C10 4.66 10 5.32 10 6 C5.16743695 5.58578031 3.17320782 3.53586014 0 0 Z " fill="#8B8B8B" transform="translate(157,204)"/>
<path d="M0 0 C1.24546405 2.49092811 0.7767578 3.41080733 0 6 C-0.99 6 -1.98 6 -3 6 C-3.28875 6.639375 -3.5775 7.27875 -3.875 7.9375 C-5 10 -5 10 -7 11 C-5.22054913 6.95579349 -2.60470327 3.53921513 0 0 Z " fill="#B9B9B9" transform="translate(168,307)"/>
<path d="M0 0 C0 3 0 3 -1.3125 4.38671875 C-2.875 5.59114583 -4.4375 6.79557292 -6 8 C-6.33 7.01 -6.66 6.02 -7 5 C-4.702779 3.25728062 -2.40133271 1.60088848 0 0 Z " fill="#8D8D8D" transform="translate(352,185)"/>
<path d="M0 0 C0.66 0.33 1.32 0.66 2 1 C0.02 5.455 0.02 5.455 -2 10 C-2.66 9.67 -3.32 9.34 -4 9 C-2.94124926 5.59687262 -1.99097846 2.98646769 0 0 Z " fill="#1D1D1D" transform="translate(366,158)"/>
<path d="M0 0 C1.53508028 2.43338652 2.03088304 3.67124507 1.7578125 6.578125 C1.44457031 7.90070313 1.44457031 7.90070313 1.125 9.25 C0.92132813 10.14203125 0.71765625 11.0340625 0.5078125 11.953125 C0.34023438 12.62859375 0.17265625 13.3040625 0 14 C-0.89214652 11.32356043 -1.13540211 9.74615622 -1.125 7 C-1.12757813 6.319375 -1.13015625 5.63875 -1.1328125 4.9375 C-1 3 -1 3 0 0 Z " fill="#535353" transform="translate(371,140)"/>
<path d="M0 0 C3.09423168 3.09423168 3.93706005 6.5523812 4.125 10.875 C4.08375 11.57625 4.0425 12.2775 4 13 C0.25474201 9.25474201 0.31090051 5.01729091 0 0 Z " fill="#B2B2B2" transform="translate(228,97)"/>
<path d="M0 0 C0.99 0.33 1.98 0.66 3 1 C2.34 2.32 1.68 3.64 1 5 C0.34 5 -0.32 5 -1 5 C-1 5.66 -1 6.32 -1 7 C-1.66 7 -2.32 7 -3 7 C-1.125 1.125 -1.125 1.125 0 0 Z " fill="#6F6F6F" transform="translate(274,84)"/>
<path d="M0 0 C1.485 0.99 1.485 0.99 3 2 C3 2.66 3 3.32 3 4 C3.66 4 4.32 4 5 4 C5.33 5.32 5.66 6.64 6 8 C4.68 7.67 3.36 7.34 2 7 C1.34 4.69 0.68 2.38 0 0 Z " fill="#7C7C7C" transform="translate(207,59)"/>
<path d="M0 0 C0.33 1.32 0.66 2.64 1 4 C-0.98 4.66 -2.96 5.32 -5 6 C-5 5.01 -5 4.02 -5 3 C-2.5 1.3125 -2.5 1.3125 0 0 Z " fill="#404040" transform="translate(210,206)"/>
<path d="M0 0 C-1.49097658 3.7952131 -3.75700849 5.61042731 -7 8 C-6.44414399 4.1090079 -4.34122117 0 0 0 Z " fill="#131313" transform="translate(218,200)"/>
<path d="M0 0 C3 1.75 3 1.75 6 4 C6 5.32 6 6.64 6 8 C2.24623848 6.74874616 1.75926711 5.4347596 0 2 C0 1.34 0 0.68 0 0 Z " fill="#999999" transform="translate(126,437)"/>
<path d="M0 0 C3.39914975 1.13304992 4.05254451 2.12518475 6 5 C5.67 5.66 5.34 6.32 5 7 C2.5 5.75 2.5 5.75 0 4 C0 2.68 0 1.36 0 0 Z " fill="#959595" transform="translate(130,204)"/>
<path d="M0 0 C2.02045442 0.60183749 4.02111039 1.27306096 6 2 C6.33 2.66 6.66 3.32 7 4 C6.67 4.66 6.34 5.32 6 6 C2.26360784 4.75453595 1.81243487 3.36595047 0 0 Z " fill="#868686" transform="translate(151,198)"/>
<path d="M0 0 C0.99 0.495 0.99 0.495 2 1 C2 1.66 2 2.32 2 3 C3.32 3.66 4.64 4.32 6 5 C5.67 5.99 5.34 6.98 5 8 C5 7.34 5 6.68 5 6 C3.68 5.67 2.36 5.34 1 5 C0.67 3.35 0.34 1.7 0 0 Z " fill="#5E5E5E" transform="translate(457,176)"/>
<path d="M0 0 C0.99 0 1.98 0 3 0 C2.34 1.65 1.68 3.3 1 5 C0.34 5 -0.32 5 -1 5 C-1 5.66 -1 6.32 -1 7 C-1.66 6.67 -2.32 6.34 -3 6 C-2 4 -1 2 0 0 Z " fill="#8E8E8E" transform="translate(367,441)"/>
<path d="M0 0 C2 2 2 2 3 5 C4.49985609 6.66710346 4.49985609 6.66710346 6 8 C5.01 9.485 5.01 9.485 4 11 C3.32591692 9.73308493 2.66099503 8.46129251 2 7.1875 C1.62875 6.47980469 1.2575 5.77210938 0.875 5.04296875 C0 3 0 3 0 0 Z " fill="#A5A5A5" transform="translate(121,426)"/>
<path d="M0 0 C1 3 1 3 1 5 C0.34 5 -0.32 5 -1 5 C-1.33 5.66 -1.66 6.32 -2 7 C-2.66 6.67 -3.32 6.34 -4 6 C-2.84826645 3.53199953 -1.95216435 1.95216435 0 0 Z " fill="#727272" transform="translate(125,351)"/>
<path d="M0 0 C1.65 1.65 3.3 3.3 5 5 C4.67 5.66 4.34 6.32 4 7 C2.35 6.01 0.7 5.02 -1 4 C-0.67 2.68 -0.34 1.36 0 0 Z " fill="#6F6F6F" transform="translate(303,259)"/>
<path d="M0 0 C0.33 0 0.66 0 1 0 C1.22245393 1.60226955 1.42746669 3.20696767 1.625 4.8125 C1.74101562 5.70582031 1.85703125 6.59914062 1.9765625 7.51953125 C2 10 2 10 0 13 C-0.96661363 9.87819599 -0.98988909 7.47916205 -0.5625 4.25 C-0.46066406 3.45078125 -0.35882813 2.6515625 -0.25390625 1.828125 C-0.17011719 1.22484375 -0.08632813 0.6215625 0 0 Z " fill="#0F0F0F" transform="translate(465,224)"/>
<path d="M0 0 C0.33 0 0.66 0 1 0 C0.67 3.3 0.34 6.6 0 10 C-2 8 -2 8 -2.25 5.5625 C-2 3 -2 3 0 0 Z " fill="#282828" transform="translate(375,126)"/>
<path d="M0 0 C0.66 0.66 1.32 1.32 2 2 C1.625 5.625 1.625 5.625 1 9 C0.34 9 -0.32 9 -1 9 C-0.67 6.03 -0.34 3.06 0 0 Z " fill="#232323" transform="translate(386,395)"/>
<path d="M0 0 C1.65 0 3.3 0 5 0 C-0.14285714 5.57142857 -0.14285714 5.57142857 -4 6 C-3.525625 5.566875 -3.05125 5.13375 -2.5625 4.6875 C-0.76313043 2.97690387 -0.76313043 2.97690387 0 0 Z " fill="#A6A6A6" transform="translate(420,309)"/>
<path d="M0 0 C0.33 0.66 0.66 1.32 1 2 C-1.97 4.475 -1.97 4.475 -5 7 C-5.66 6.67 -6.32 6.34 -7 6 C-4.53846154 1.2 -4.53846154 1.2 -1.8125 0.1875 C-0.9153125 0.0946875 -0.9153125 0.0946875 0 0 Z " fill="#B6B6B6" transform="translate(344,194)"/>
<path d="M0 0 C0 0.99 0 1.98 0 3 C-0.99 3.495 -0.99 3.495 -2 4 C-2.65213292 6.02463255 -2.65213292 6.02463255 -3 8 C-3.99 8 -4.98 8 -6 8 C-4.73058503 4.08597051 -3.48832306 2.20927127 0 0 Z " fill="#818181" transform="translate(143,50)"/>
<path d="M0 0 C2.475 0.99 2.475 0.99 5 2 C4.67 2.99 4.34 3.98 4 5 C2.68 4.34 1.36 3.68 0 3 C0 2.01 0 1.02 0 0 Z " fill="#686868" transform="translate(345,38)"/>
</svg>
